<svg xmlns="http://www.w3.org/2000/svg" width="400" height="400"><path d="M136.5.272c-1.815.088-3.3.333-3.3.544 0 .211-1.35.384-3 .384-1.733 0-3 .169-3 .4 0 .22-.72.4-1.6.4-.88 0-1.6.18-1.6.4 0 .22-.9.4-2 .4s-2 .18-2 .4c0 .22-.72.4-1.6.4-.88 0-1.6.18-1.6.4 0 .22-.72.4-1.6.4-.88 0-1.6.18-1.6.4 0 .22-.72.4-1.6.4-.88 0-1.6.18-1.6.4 0 .22-.45.4-1 .4s-1 .18-1 .4c0 .22-.54.4-1.2.4-.66 0-1.2.18-1.2.4 0 .22-.54.4-1.2.4-.66 0-1.2.18-1.2.4 0 .22-.54.4-1.2.4-.66 0-1.2.18-1.2.4 0 .22-.54.4-1.2.4-.66 0-1.2.16-1.2.355 0 .196-.63.474-1.4.619-.77.144-1.4.434-1.4.644 0 .21-.439.382-.976.382-.537 0-1.088.18-1.224.4-.136.22-.597.4-1.024.4-.427 0-.776.18-.776.4 0 .22-.36.4-.8.4-.44 0-.8.18-.8.4 0 .22-.36.4-.8.4-.44 0-.8.18-.8.4 0 .22-.54.4-1.2.4-.66 0-1.2.18-1.2.4 0 .22-.32.4-.712.4-.391 0-.971.36-1.288.8-.317.44-.897.8-1.288.8-.392 0-.712.18-.712.4 0 .22-.36.4-.8.4-.44 0-.8.18-.8.4 0 .22-.36.4-.8.4-.44 0-.8.18-.8.4 0 .22-.348.4-.773.4-.425 0-.887.36-1.027.8-.14.44-.602.8-1.027.8-.425 0-.773.18-.773.4 0 .22-.32.4-.712.4-.391 0-.971.36-1.288.8-.317.44-.857.8-1.2.8-.343 0-.883.36-1.2.8-.317.44-.857.8-1.2.8-.343 0-.883.36-1.2.8-.317.44-.897.8-1.288.8-.392 0-.712.177-.712.392 0 .216-.493.517-1.096.668-1.219.306-2.2 1.111-1.818 1.492.136.137.024.248-.248.248s-.767.272-1.099.604c-.332.332-.769.501-.971.376-.203-.125-.368.064-.368.42s-.18.536-.4.4c-.22-.136-.4-.076-.4.134 0 .56-2.243 2.866-2.786 2.866-.256 0-1.343.9-2.414 2-1.071 1.1-2.142 2-2.38 2C52.289 38 42 48.323 42 48.856c0 .21-1.26 1.625-2.8 3.144-1.54 1.519-2.8 2.968-2.8 3.22 0 .253-.54.963-1.2 1.58-.66.617-1.2 1.343-1.2 1.614 0 .532-1.508 1.986-2.061 1.986-.187 0-.339.288-.339.64 0 .351-.54 1.143-1.2 1.76-.66.617-1.2 1.343-1.2 1.614 0 .27-.331.783-.736 1.139-.405.356-.858 1.142-1.008 1.747-.149.605-.448 1.1-.664 1.1-.215 0-.392.36-.392.8 0 .44-.18.8-.4.8-.22 0-.4.32-.4.712 0 .391-.36.971-.8 1.288-.44.317-.8.897-.8 1.288 0 .392-.18.712-.4.712-.22 0-.4.32-.4.712 0 .391-.36.971-.8 1.288-.44.317-.8.807-.8 1.088 0 .282-.18.512-.4.512-.22 0-.4.36-.4.8 0 .44-.18.8-.4.8-.22 0-.4.36-.4.8 0 .44-.18.8-.4.8-.22 0-.4.36-.4.8 0 .44-.18.8-.4.8-.22 0-.4.36-.4.8 0 .44-.18.8-.4.8-.22 0-.4.36-.4.8 0 .44-.18.8-.4.8-.22 0-.4.36-.4.8 0 .44-.18.8-.4.8-.22 0-.4.349-.4.776 0 .427-.18.888-.4 1.024-.22.136-.4.687-.4 1.224 0 .537-.18.976-.4.976-.22 0-.4.36-.4.8 0 .44-.18.8-.4.8-.22 0-.4.45-.4 1s-.141 1-.313 1c-.172 0-.353.495-.403 1.1-.05.605-.269 1.16-.487 1.233-.219.074-.397.479-.397.9 0 .422-.18.767-.4.767-.22 0-.4.54-.4 1.2 0 .66-.162 1.2-.361 1.2-.198 0-.486 1.08-.639 2.4-.153 1.32-.441 2.4-.639 2.4-.199 0-.361.72-.361 1.6 0 .88-.18 1.6-.4 1.6-.22 0-.4.63-.4 1.4 0 .77-.18 1.4-.4 1.4-.22 0-.4.54-.4 1.2 0 .66-.18 1.2-.4 1.2-.22 0-.4.72-.4 1.6 0 .88-.18 1.6-.4 1.6-.222 0-.4 1.067-.4 2.4s-.178 2.4-.4 2.4c-.222 0-.4 1.067-.4 2.4s-.178 2.4-.4 2.4c-.22 0-.4.99-.4 2.2 0 1.21-.18 2.2-.4 2.2-.248 0-.4 2.133-.4 5.6 0 3.467-.152 5.6-.4 5.6-.253 0-.4 2.933-.4 8s.147 8 .4 8c.242 0 .4 1.733.4 4.4 0 2.667.158 4.4.4 4.4.233 0 .4 1.333.4 3.2 0 1.867.167 3.2.4 3.2.22 0 .4.99.4 2.2 0 1.21.18 2.2.4 2.2.22 0 .4.9.4 2s.18 2 .4 2c.22 0 .4.72.4 1.6 0 .88.18 1.6.4 1.6.22 0 .4.9.4 2s.18 2 .4 2c.22 0 .4.45.4 1s.18 1 .4 1c.22 0 .4.72.4 1.6 0 .88.162 1.6.361 1.6.198 0 .486 1.08.639 2.4.153 1.32.441 2.4.639 2.4.199 0 .361.54.361 1.2 0 .66.18 1.2.4 1.2.22 0 .4.54.4 1.2 0 .66.18 1.2.4 1.2.22 0 .4.345.4.767 0 .421.178.826.397.9.218.073.437.628.487 1.233.05.605.231 1.1.403 1.1.172 0 .313.27.313.6 0 .33.18.6.4.6.22 0 .4.36.4.8 0 .44.18.8.4.8.22 0 .4.439.4.976 0 .537.18 1.088.4 1.224.22.136.4.597.4 1.024 0 .427.18.776.4.776.22 0 .4.36.4.8 0 .44.18.8.4.8.22 0 .4.36.4.8 0 .44.18.8.4.8.22 0 .4.36.4.8 0 .44.18.8.4.8.22 0 .4.36.4.8 0 .44.18.8.4.8.22 0 .4.32.4.712 0 .391.36.971.8 1.288.44.317.8.807.8 1.088 0 .282.18.512.4.512.22 0 .4.36.4.8 0 .44.18.8.4.8.22 0 .4.36.4.8 0 .44.18.8.4.8.22 0 .4.32.4.712 0 .391.36.971.8 1.288.44.317.8.897.8 1.288 0 .392.177.712.392.712.216 0 .516.495.668 1.1.151.605.784 1.577 1.407 2.16.623.584 1.133 1.309 1.133 1.612 0 .303.36.811.8 1.128.44.317.8.857.8 1.2 0 .343.36.883.8 1.2.44.317.8.731.8.92 0 .188.72 1.034 1.6 1.88.88.846 1.6 1.741 1.6 1.991 0 .249 1.08 1.513 2.4 2.809 1.32 1.296 2.404 2.591 2.409 2.878.004.287.634 1.06 1.4 1.718.765.658 1.391 1.434 1.391 1.724 0 .29.18.416.4.28.22-.136.4.044.4.4 0 .356.135.575.3.487.393-.21 1.704 1.176 1.4 1.48-.128.128.077.233.457.233s.579.18.443.4c-.136.22-.059.4.17.4s1.767 1.35 3.417 3 3.195 3 3.433 3c.237 0 1.309.9 2.38 2s2.23 2 2.574 2c.344 0 .626.152.626.339 0 .553 1.454 2.061 1.986 2.061.271 0 .997.54 1.614 1.2.617.66 1.343 1.2 1.614 1.2.27 0 .783.331 1.139.736.356.405 1.142.858 1.747 1.008.605.149 1.1.448 1.1.664 0 .215.32.392.712.392.391 0 .971.36 1.288.8.317.44.857.8 1.2.8.343 0 .883.36 1.2.8.317.44.857.8 1.2.8.343 0 .883.36 1.2.8.317.44.807.8 1.088.8.282 0 .512.18.512.4 0 .22.36.4.8.4.44 0 .8.18.8.4 0 .22.36.4.8.4.44 0 .8.18.8.4 0 .22.32.4.712.4.391 0 .971.36 1.288.8.317.44.897.8 1.288.8.392 0 .712.18.712.4 0 .22.36.4.8.4.44 0 .8.18.8.4 0 .22.349.4.776.4.427 0 .888.18 1.024.4.136.22.687.4 1.224.4.537 0 .976.18.976.4 0 .22.36.4.8.4.44 0 .8.18.8.4 0 .22.265.4.588.4.323 0 1.229.36 2.012.8.783.44 1.789.8 2.236.8.446 0 .704.173.574.384-.133.216.648.502 1.776.652 1.108.147 2.014.424 2.014.616 0 .191.54.348 1.2.348.66 0 1.2.18 1.2.4 0 .22.36.4.8.4.44 0 .8.18.8.4 0 .22.72.4 1.6.4.88 0 1.6.18 1.6.4 0 .22.45.4 1 .4s1 .18 1 .4c0 .22.54.4 1.2.4.66 0 1.2.18 1.2.4 0 .22.709.4 1.576.4.867 0 1.688.18 1.824.4.136.22.867.4 1.624.4.757 0 1.376.18 1.376.4 0 .22.9.4 2 .4s2 .18 2 .4c0 .22.9.4 2 .4s2 .18 2 .4c0 .22.99.4 2.2.4 1.21 0 2.2.18 2.2.4 0 .233 1.333.4 3.2.4 1.867 0 3.2.167 3.2.4 0 .254 3.133.4 8.6.4s8.6.146 8.6.4c0 .22.99.4 2.2.4 1.21 0 2.2-.18 2.2-.4 0-.248 2.133-.4 5.6-.4 3.467 0 5.6-.152 5.6-.4 0-.226 1.133-.4 2.6-.4s2.6-.174 2.6-.4c0-.229 1.2-.4 2.8-.4 1.6 0 2.8-.171 2.8-.4 0-.22.72-.4 1.6-.4.88 0 1.6-.18 1.6-.4 0-.22.9-.4 2-.4s2-.18 2-.4c0-.22.63-.4 1.4-.4.77 0 1.4-.18 1.4-.4 0-.22.72-.4 1.6-.4.88 0 1.6-.18 1.6-.4 0-.22.54-.4 1.2-.4.66 0 1.2-.18 1.2-.4 0-.22.72-.4 1.6-.4.88 0 1.6-.18 1.6-.4 0-.22.54-.4 1.2-.4.66 0 1.2-.18 1.2-.4 0-.22.54-.4 1.2-.4.66 0 1.2-.18 1.2-.4 0-.22.36-.4.8-.4.44 0 .8-.167.8-.371s.99-.495 2.2-.646c1.21-.151 2.2-.434 2.2-.629s.36-.354.8-.354c.44 0 .8-.18.8-.4 0-.22.36-.4.8-.4.44 0 .8-.18.8-.4 0-.22.54-.4 1.2-.4.66 0 1.2-.18 1.2-.4 0-.22.36-.4.8-.4.44 0 .801-.135.803-.3.004-.359 1.941-1.3 2.677-1.3.286 0 .52-.18.52-.4 0-.22.36-.4.8-.4.44 0 .8-.18.8-.4 0-.22.36-.4.8-.4.44 0 .8-.18.8-.4 0-.22.27-.4.6-.4.33 0 .6-.18.6-.4 0-.22.32-.4.712-.4.391 0 .971-.36 1.288-.8 1.149-1.595 2.188-1.016 7.452 4.152 6.527 6.408 7.106 6.988 13.737 13.748 3.075 3.135 5.781 5.7 6.014 5.7.382 0 1.895 1.298 4.09 3.507a38107.345 38107.345 0 0016.801 16.799l16.506 16.507 8.6 8.603c8.954 8.958 7.468 7.473 16.294 16.294l8.546 8.543c.69.689 4.37 4.379 8.18 8.2 7.877 7.901 7.927 7.947 8.763 7.947.339 0 .617.161.617.358 0 .634 2.3 2.842 2.96 2.842.352 0 .64.18.64.4 0 .22.234.4.52.4.736 0 2.673.941 2.677 1.3.002.165.363.3.803.3.44 0 .8.18.8.4 0 .22.525.4 1.167.4.641 0 1.241.225 1.333.5.242.725 19.959.725 20.2 0 .092-.275.602-.5 1.133-.5.532 0 .967-.18.967-.4 0-.22.36-.4.8-.4.44 0 .8-.18.8-.4 0-.22.36-.4.8-.4.44 0 .8-.18.8-.4 0-.22.288-.4.64-.4.351 0 1.143-.54 1.76-1.2.617-.66 1.325-1.2 1.574-1.2.249 0 1.083-.63 1.853-1.4.77-.77 1.584-1.4 1.81-1.4.226 0 .299-.18.163-.4-.136-.22.044-.4.4-.4.356 0 .536-.18.4-.4-.136-.22.033-.4.376-.4a.626.626 0 00.624-.624c0-.343.18-.512.4-.376.22.136.4-.046.4-.405 0-.359.27-.922.6-1.252.33-.33.6-.947.6-1.372 0-.424.18-.771.4-.771.22 0 .4-.32.4-.712 0-.391.36-.971.8-1.288.47-.339.8-1.035.8-1.688 0-.612.18-1.112.4-1.112.22 0 .4-.54.4-1.2 0-.66.18-1.2.4-1.2.22 0 .4-.99.4-2.2 0-1.21.18-2.2.4-2.2.246 0 .4-2 .4-5.2s-.154-5.2-.4-5.2c-.22 0-.4-.63-.4-1.4 0-.77-.18-1.4-.4-1.4-.22 0-.4-.72-.4-1.6 0-.88-.18-1.6-.4-1.6-.22 0-.4-.36-.4-.8 0-.44-.18-.8-.4-.8-.22 0-.4-.36-.4-.8 0-.44-.18-.8-.4-.8-.22 0-.4-.36-.4-.8 0-.44-.18-.8-.4-.8-.22 0-.4-.354-.4-.787 0-.432-.63-1.416-1.4-2.186-.77-.77-1.408-1.631-1.418-1.914-.011-.282-.74-1.143-1.622-1.913-.882-.77-3.979-3.784-6.882-6.698a8149.483 8149.483 0 00-8.078-8.099c-8.027-8.027-13.942-13.942-16.9-16.902-7.81-7.813-11.725-11.501-12.207-11.501-.284 0-.781-.388-1.105-.863-.323-.474-2.074-2.319-3.889-4.1-1.816-1.78-5.551-5.487-8.301-8.237l-8.2-8.2-16.698-16.699-8.6-8.6a8004.737 8004.737 0 01-8.192-8.2 359.35 359.35 0 00-6.474-6.301c-2.853-2.69-3.954-4.4-2.834-4.4.22 0 .4-.32.4-.712 0-.391.36-.971.8-1.288.44-.317.8-.857.8-1.2 0-.343.36-.883.8-1.2.44-.317.8-.897.8-1.288 0-.392.18-.712.4-.712.22 0 .4-.32.4-.712 0-.391.36-.971.8-1.288.44-.317.8-.897.8-1.288 0-.392.18-.712.4-.712.22 0 .4-.27.4-.6 0-.33.18-.6.4-.6.22 0 .4-.36.4-.8 0-.44.18-.8.4-.8.22 0 .4-.36.4-.8 0-.44.18-.8.4-.8.22 0 .4-.36.4-.8 0-.44.18-.8.4-.8.22 0 .4-.36.4-.8 0-.44.18-.8.4-.8.22 0 .4-.36.4-.8 0-.44.18-.8.4-.8.22 0 .4-.36.4-.8 0-.44.164-.8.365-.8.201 0 .486-.72.635-1.6.149-.88.434-1.6.635-1.6s.365-.36.365-.8c0-.44.18-.8.4-.8.22 0 .4-.45.4-1s.18-1 .4-1c.22 0 .4-.36.4-.8 0-.44.18-.8.4-.8.22 0 .4-.54.4-1.2 0-.66.18-1.2.4-1.2.22 0 .4-.349.4-.776 0-.427.18-.888.4-1.024.22-.136.4-.687.4-1.224 0-.537.18-.976.4-.976.22 0 .4-.54.4-1.2 0-.66.18-1.2.4-1.2.22 0 .4-.54.4-1.2 0-.66.18-1.2.4-1.2.22 0 .4-.72.4-1.6 0-.88.18-1.6.4-1.6.22 0 .4-.45.4-1s.18-1 .4-1c.22 0 .4-.72.4-1.6 0-.88.18-1.6.4-1.6.22 0 .4-.72.4-1.6 0-.88.18-1.6.4-1.6.22 0 .4-.889.4-1.976s.18-2.088.4-2.224c.22-.136.4-1.227.4-2.424 0-1.197.18-2.176.4-2.176.22 0 .4-.99.4-2.2 0-1.21.18-2.2.4-2.2.244 0 .4-1.867.4-4.8s.156-4.8.4-4.8c.257 0 .4-4.133.4-11.6s-.143-11.6-.4-11.6c-.233 0-.4-1.333-.4-3.2 0-1.867-.167-3.2-.4-3.2-.235 0-.4-1.4-.4-3.4s-.165-3.4-.4-3.4c-.22 0-.4-.619-.4-1.376 0-.757-.18-1.488-.4-1.624-.22-.136-.4-1.137-.4-2.224 0-1.087-.18-1.976-.4-1.976-.22 0-.4-.9-.4-2s-.18-2-.4-2c-.22 0-.4-.72-.4-1.6 0-.88-.18-1.6-.4-1.6-.22 0-.4-.45-.4-1s-.18-1-.4-1c-.22 0-.4-.54-.4-1.2 0-.66-.18-1.2-.4-1.2-.22 0-.4-.54-.4-1.2 0-.66-.18-1.2-.4-1.2-.22 0-.4-.54-.4-1.2 0-.66-.18-1.2-.4-1.2-.22 0-.4-.619-.4-1.376 0-.757-.18-1.488-.4-1.624-.22-.136-.4-.597-.4-1.024 0-.427-.18-.776-.4-.776-.22 0-.4-.54-.4-1.2 0-.66-.18-1.2-.4-1.2-.22 0-.4-.27-.4-.6 0-.33-.18-.6-.4-.6-.22 0-.4-.36-.4-.8 0-.44-.18-.8-.4-.8-.22 0-.4-.54-.4-1.2 0-.66-.164-1.2-.365-1.2-.201 0-.486-.72-.635-1.6-.149-.88-.434-1.6-.635-1.6s-.365-.54-.365-1.2c0-.66-.18-1.2-.4-1.2-.22 0-.4-.32-.4-.712 0-.391-.36-.971-.8-1.288-.44-.317-.8-.897-.8-1.288 0-.392-.18-.712-.4-.712-.22 0-.4-.36-.4-.8 0-.44-.18-.8-.4-.8-.22 0-.4-.27-.4-.6 0-.33-.18-.6-.4-.6-.22 0-.4-.32-.4-.712 0-.391-.36-.971-.8-1.288-.44-.317-.8-.897-.8-1.288 0-.392-.18-.712-.4-.712-.22 0-.4-.36-.4-.8 0-.44-.18-.8-.4-.8-.22 0-.4-.288-.4-.64 0-.351-.495-1.116-1.1-1.7-.605-.583-1.355-1.555-1.668-2.16-.312-.605-.717-1.1-.9-1.1-.182 0-.332-.32-.332-.712 0-.391-.36-.971-.8-1.288-.44-.317-.8-.857-.8-1.2 0-.343-.36-.883-.8-1.2-.44-.317-.8-.801-.8-1.075 0-.274-.63-1.128-1.4-1.898-.77-.77-1.4-1.596-1.4-1.836 0-.239-1.08-1.495-2.4-2.791-1.32-1.296-2.4-2.553-2.4-2.795s-1.485-1.871-3.3-3.621c-4.146-3.998-4.865-4.717-8.283-8.284-1.528-1.595-2.979-2.9-3.224-2.9-.245 0-1.322-.9-2.393-2-1.071-1.1-2.158-2-2.414-2-.256 0-.969-.54-1.586-1.2-.617-.66-1.327-1.2-1.579-1.2-.251 0-.907-.45-1.457-1s-1.222-1-1.494-1c-.271 0-.753-.36-1.07-.8-.317-.44-.857-.8-1.2-.8-.343 0-.883-.36-1.2-.8-.317-.44-.857-.8-1.2-.8-.343 0-.883-.36-1.2-.8-.317-.44-.897-.8-1.288-.8-.392 0-.712-.18-.712-.4 0-.22-.32-.4-.712-.4-.391 0-.971-.36-1.288-.8-.317-.44-.897-.8-1.288-.8-.392 0-.712-.18-.712-.4 0-.22-.36-.4-.8-.4-.44 0-.8-.18-.8-.4 0-.22-.36-.4-.8-.4-.44 0-.8-.18-.8-.4 0-.22-.36-.4-.8-.4-.44 0-.8-.18-.8-.4 0-.22-.27-.4-.6-.4-.33 0-.6-.18-.6-.4 0-.22-.36-.4-.8-.4-.44 0-.8-.18-.8-.4 0-.22-.234-.4-.52-.4-.736 0-2.673-.941-2.677-1.3-.002-.165-.363-.3-.803-.3-.44 0-.8-.18-.8-.4 0-.22-.36-.4-.8-.4-.44 0-.8-.18-.8-.4 0-.22-.36-.4-.8-.4-.44 0-.8-.18-.8-.4 0-.22-.36-.4-.8-.4-.44 0-.8-.159-.8-.354 0-.195-.99-.478-2.2-.629-1.21-.151-2.2-.442-2.2-.646 0-.204-.36-.371-.8-.371-.44 0-.8-.18-.8-.4 0-.22-.54-.4-1.2-.4-.66 0-1.2-.18-1.2-.4 0-.22-.36-.4-.8-.4-.44 0-.8-.18-.8-.4 0-.22-.72-.4-1.6-.4-.88 0-1.6-.18-1.6-.4 0-.22-.54-.4-1.2-.4-.66 0-1.2-.18-1.2-.4 0-.22-.72-.4-1.6-.4-.88 0-1.6-.18-1.6-.4 0-.22-.63-.4-1.4-.4-.77 0-1.4-.18-1.4-.4 0-.22-.54-.4-1.2-.4-.66 0-1.2-.18-1.2-.4 0-.22-.9-.4-2-.4s-2-.18-2-.4c0-.222-1.067-.4-2.4-.4s-2.4-.178-2.4-.4c0-.222-1.056-.4-2.367-.4-1.464 0-2.426-.18-2.524-.472-.157-.473-30.813-.835-38.609-.456M159.2 54.8c0 .239 1.533.4 3.8.4s3.8.161 3.8.4c0 .229 1.2.4 2.8.4 1.6 0 2.8.171 2.8.4 0 .22.72.4 1.6.4.88 0 1.6.18 1.6.4 0 .22.709.4 1.576.4.867 0 1.677.162 1.8.361.122.198 1.303.486 2.623.639 1.321.153 2.401.441 2.401.639 0 .199.36.361.8.361.44 0 .8.18.8.4 0 .22.54.4 1.2.4.66 0 1.2.18 1.2.4 0 .22.54.4 1.2.4.66 0 1.2.18 1.2.4 0 .22.36.4.8.4.44 0 .8.18.8.4 0 .22.36.4.8.4.44 0 .8.18.8.4 0 .22.27.4.6.4.33 0 .6.18.6.4 0 .22.36.4.8.4.44 0 .8.18.8.4 0 .22.5.4 1.112.4.653 0 1.349.33 1.688.8.317.44.897.8 1.288.8.392 0 .712.18.712.4 0 .22.32.4.712.4.391 0 .971.36 1.288.8.317.44.809.8 1.094.8.693 0 2.147.838 2.949 1.7.358.385.856.7 1.108.7.251 0 1.021.54 1.712 1.2.691.66 1.418 1.2 1.615 1.2.198 0 .777.45 1.287 1 .51.55 1.13 1 1.379 1 .519 0 13.256 12.597 13.256 13.111 0 .186.54.857 1.2 1.489.66.632 1.2 1.404 1.2 1.714 0 .311.495 1.042 1.1 1.626.605.583 1.355 1.555 1.668 2.16.312.605.717 1.1.9 1.1.182 0 .332.32.332.712 0 .391.36.971.8 1.288.44.317.8.857.8 1.2 0 .343.36.883.8 1.2.44.317.8.897.8 1.288 0 .392.18.712.4.712.22 0 .4.36.4.8 0 .44.18.8.4.8.22 0 .4.36.4.8 0 .44.18.8.4.8.22 0 .4.36.4.8 0 .44.18.8.4.8.22 0 .4.27.4.6 0 .33.18.6.4.6.22 0 .4.36.4.8 0 .44.18.8.4.8.22 0 .4.36.4.8 0 .44.18.8.4.8.22 0 .4.54.4 1.2 0 .66.174 1.2.386 1.2.213 0 .506.9.652 2 .146 1.1.422 2 .614 2 .191 0 .348.551.348 1.224 0 .673.16 1.124.355 1.004.35-.217.68.933 1.11 3.872.12.825.38 1.5.577 1.5.197 0 .358.72.358 1.6 0 .88.18 1.6.4 1.6.22 0 .4.9.4 2s.18 2 .4 2c.222 0 .4 1.067.4 2.4s.178 2.4.4 2.4c.245 0 .4 1.933.4 5s.155 5 .4 5c.22 0 .4.72.4 1.6 0 .88-.18 1.6-.4 1.6-.245 0-.4 1.933-.4 5s-.155 5-.4 5c-.229 0-.4 1.2-.4 2.8 0 1.6-.171 2.8-.4 2.8-.22 0-.4.9-.4 2s-.18 2-.4 2c-.22 0-.4.72-.4 1.6 0 .88-.161 1.6-.358 1.6-.197 0-.457.675-.577 1.5-.43 2.939-.76 4.089-1.11 3.872-.195-.12-.355.331-.355 1.004s-.174 1.224-.386 1.224c-.213 0-.506.9-.652 2-.146 1.1-.422 2-.614 2-.191 0-.348.36-.348.8 0 .44-.18.8-.4.8-.22 0-.4.54-.4 1.2 0 .66-.18 1.2-.4 1.2-.22 0-.4.36-.4.8 0 .44-.18.8-.4.8-.22 0-.4.36-.4.8 0 .44-.18.8-.4.8-.22 0-.4.27-.4.6 0 .33-.18.6-.4.6-.22 0-.4.32-.4.712 0 .391-.36.971-.8 1.288-.44.317-.8.897-.8 1.288 0 .392-.18.712-.4.712-.22 0-.4.32-.4.712 0 .391-.36.971-.8 1.288-.44.317-.8.897-.8 1.288 0 .392-.18.712-.4.712-.22 0-.4.28-.4.622 0 .342-.539 1.197-1.198 1.9-.659.703-1.199 1.431-1.2 1.618-.001.186-.542.843-1.202 1.46-.66.617-1.2 1.387-1.2 1.713 0 .325-.81 1.317-1.8 2.203-.99.886-1.8 1.81-1.8 2.053 0 .569-7.452 8.031-8.021 8.031-.237 0-1.308.9-2.379 2s-2.159 2-2.416 2c-.258 0-.823.45-1.255 1-.433.55-1.062 1-1.398 1-.335 0-1.114.54-1.731 1.2-.617.66-1.409 1.2-1.76 1.2-.352 0-.64.18-.64.4 0 .22-.236.4-.525.4-.288 0-.911.36-1.383.8-.472.44-1.136.8-1.475.8-.339 0-.617.18-.617.4 0 .22-.32.4-.712.4-.391 0-.971.36-1.288.8-.317.44-.897.8-1.288.8-.392 0-.712.18-.712.4 0 .22-.36.4-.8.4-.44 0-.8.18-.8.4 0 .22-.54.4-1.2.4-.66 0-1.2.18-1.2.4 0 .22-.27.4-.6.4-.33 0-.6.18-.6.4 0 .22-.36.4-.8.4-.44 0-.8.18-.8.4 0 .22-.36.4-.8.4-.44 0-.8.18-.8.4 0 .22-.54.4-1.2.4-.66 0-1.2.18-1.2.4 0 .22-.54.4-1.2.4-.66 0-1.2.18-1.2.4 0 .22-.36.4-.8.4-.44 0-.8.18-.8.4 0 .22-.72.4-1.6.4-.88 0-1.6.165-1.6.366 0 .201-1.35.492-3 .647-1.65.154-3 .44-3 .634s-.9.353-2 .353-2 .18-2 .4c0 .222-1.067.4-2.4.4s-2.4.178-2.4.4c0 .257-4.067.4-11.4.4s-11.4-.143-11.4-.4c0-.223-1.075-.4-2.424-.4-1.513 0-2.33-.15-2.176-.4.152-.247-.529-.4-1.776-.4-1.113 0-2.024-.161-2.024-.358 0-.197-1.44-.486-3.2-.642-1.76-.156-3.2-.445-3.2-.642s-.63-.358-1.4-.358c-.77 0-1.4-.18-1.4-.4 0-.22-.36-.4-.8-.4-.44 0-.8-.18-.8-.4 0-.22-.54-.4-1.2-.4-.66 0-1.2-.18-1.2-.4 0-.22-.54-.4-1.2-.4-.66 0-1.2-.18-1.2-.4 0-.22-.36-.4-.8-.4-.44 0-.8-.18-.8-.4 0-.22-.36-.4-.8-.4-.44 0-.8-.18-.8-.4 0-.22-.54-.4-1.2-.4-.66 0-1.2-.18-1.2-.4 0-.22-.36-.4-.8-.4-.44 0-.8-.18-.8-.4 0-.22-.36-.4-.8-.4-.44 0-.8-.18-.8-.4 0-.22-.23-.4-.512-.4-.281 0-.771-.36-1.088-.8-.317-.44-.897-.8-1.288-.8-.392 0-.712-.18-.712-.4 0-.22-.278-.4-.617-.4-.339 0-1.003-.36-1.475-.8-.472-.44-1.095-.8-1.383-.8-.289 0-.525-.18-.525-.4 0-.22-.288-.4-.64-.4-.351 0-1.143-.54-1.76-1.2-.617-.66-1.326-1.2-1.577-1.2-.429 0-.868-.298-2.208-1.5-.307-.275-.765-.5-1.018-.5-.536 0-3.597-3.091-3.597-3.633 0-.202-.272-.367-.605-.367-.683 0-8.195-7.353-8.195-8.021 0-.521-3.899-4.379-4.427-4.379-.205 0-.373-.288-.373-.64 0-.351-.51-1.116-1.133-1.7-.623-.583-1.256-1.555-1.407-2.16-.152-.605-.452-1.1-.668-1.1-.215 0-.392-.32-.392-.712 0-.391-.36-.971-.8-1.288-.44-.317-.8-.897-.8-1.288 0-.392-.18-.712-.4-.712-.22 0-.4-.317-.4-.704 0-.387-.36-.928-.8-1.203-.44-.275-.8-.858-.8-1.296 0-.439-.18-.797-.4-.797-.22 0-.4-.36-.4-.8 0-.44-.18-.8-.4-.8-.22 0-.4-.27-.4-.6 0-.33-.18-.6-.4-.6-.22 0-.4-.36-.4-.8 0-.44-.18-.8-.4-.8-.22 0-.4-.36-.4-.8 0-.44-.18-.8-.4-.8-.22 0-.4-.36-.4-.8 0-.44-.18-.8-.4-.8-.22 0-.4-.54-.4-1.2 0-.66-.18-1.2-.4-1.2-.22 0-.4-.54-.4-1.2 0-.66-.135-1.201-.3-1.203-.447-.005-1.3-2.023-1.3-3.077 0-.506-.18-.92-.4-.92-.22 0-.4-.54-.4-1.2 0-.66-.18-1.2-.4-1.2-.22 0-.4-.63-.4-1.4 0-.77-.18-1.4-.4-1.4-.22 0-.4-.72-.4-1.6 0-.88-.18-1.6-.4-1.6-.22 0-.4-.885-.4-1.967 0-1.081-.181-2.027-.402-2.1-.236-.079-.511-2.999-.663-7.034-.144-3.794-.413-6.899-.598-6.899s-.337-1.26-.337-2.8c0-1.54.152-2.8.338-2.8.185 0 .46-3.285.61-7.3.154-4.118.443-7.358.663-7.433.214-.074.389-1.019.389-2.1 0-1.082.18-1.967.4-1.967.22 0 .4-.54.4-1.2 0-.66.18-1.2.4-1.2.22 0 .4-.63.4-1.4 0-.77.18-1.4.4-1.4.22 0 .4-.54.4-1.2 0-.66.18-1.2.4-1.2.22 0 .4-.529.4-1.176 0-.647.18-1.288.4-1.424.22-.136.4-.687.4-1.224 0-.537.18-.976.4-.976.22 0 .4-.54.4-1.2 0-.66.18-1.2.4-1.2.22 0 .4-.36.4-.8 0-.44.18-.8.4-.8.22 0 .4-.36.4-.8 0-.44.18-.8.4-.8.22 0 .4-.36.4-.8 0-.44.18-.8.4-.8.22 0 .4-.27.4-.6 0-.33.18-.6.4-.6.22 0 .4-.36.4-.8 0-.44.18-.8.4-.8.22 0 .4-.36.4-.8 0-.44.18-.8.4-.8.22 0 .4-.272.4-.605 0-.772.799-2.199 1.7-3.038.385-.358.7-.945.7-1.304 0-.359.18-.653.4-.653.22 0 .4-.32.4-.712 0-.391.36-.971.8-1.288.44-.317.8-.889.8-1.27 0-.382.45-1.144 1-1.694s1-1.212 1-1.471c0-.516 1.519-1.965 2.061-1.965.187 0 .339-.271.339-.603 0-.332 2.745-3.363 6.1-6.736 3.355-3.373 6.365-6.522 6.688-6.997.324-.475.826-.864 1.117-.864.496 0 .916-.277 2.28-1.5.307-.275.768-.5 1.026-.5.257 0 .972-.54 1.589-1.2.617-.66 1.343-1.2 1.614-1.2.27 0 .785-.315 1.143-.7.802-.862 2.256-1.7 2.949-1.7.285 0 .777-.36 1.094-.8.317-.44.897-.8 1.288-.8.392 0 .712-.18.712-.4 0-.22.348-.4.773-.4.425 0 .887-.36 1.027-.8.178-.56.605-.8 1.427-.8.645 0 1.173-.18 1.173-.4 0-.22.36-.4.8-.4.44 0 .8-.18.8-.4 0-.22.36-.4.8-.4.44 0 .8-.18.8-.4 0-.22.36-.4.8-.4.44 0 .8-.18.8-.4 0-.22.36-.4.8-.4.44 0 .8-.18.8-.4 0-.22.54-.4 1.2-.4.66 0 1.2-.18 1.2-.4 0-.22.54-.4 1.2-.4.66 0 1.2-.18 1.2-.4 0-.22.345-.4.767-.4.421 0 .826-.178.9-.396.073-.218 1.258-.514 2.633-.657 1.375-.144 2.5-.415 2.5-.604s.72-.343 1.6-.343c.88 0 1.6-.18 1.6-.4 0-.22.705-.4 1.567-.4.861 0 1.626-.17 1.7-.378.073-.208 1.348-.416 2.833-.463 1.485-.047 2.7-.237 2.7-.422s1.71-.337 3.8-.337c2.267 0 3.8-.161 3.8-.4 0-.246 2-.4 5.2-.4s5.2.154 5.2.4" fill="#74acd4" fill-rule="evenodd"/></svg>